<?xml version="1.0" encoding="UTF-8" standalone="no"?>
<svg xmlns="http://www.w3.org/2000/svg" x="0px" y="0px" viewBox="0 0 121.05363 115.47384" xml:space="preserve" width="121.05363" height="115.47384"><switch transform="translate(-18.782268,-9.1261646)"><g><path d="m 62.2,94.2 c -6,0 -11.7,3.6 -14.1,9.5 -3.2,7.8 0.6,16.7 8.4,19.8 1.9,0.8 3.8,1.1 5.7,1.1 6,0 11.7,-3.6 14.1,-9.5 3.2,-7.8 -0.6,-16.7 -8.4,-19.8 -1.8,-0.8 -3.8,-1.1 -5.7,-1.1" style="fill:#ffffff"/><path d="m 121.7,45.8 c -4.9,0.9 -9.2,4.3 -11.2,9.2 -3.2,7.8 0.6,16.7 8.4,19.8 2.8,1.1 5.8,1.4 8.6,0.8 4.9,-0.9 9.2,-4.3 11.2,-9.2 3.2,-7.8 -0.6,-16.7 -8.4,-19.8 -2.9,-1.1 -5.8,-1.3 -8.6,-0.8" style="fill:#ffffff"/><path d="m 48.3,16.1 c -4.9,0.9 -9.2,4.3 -11.2,9.2 -3.1,7.9 0.6,16.7 8.4,19.9 2.8,1.1 5.8,1.4 8.6,0.8 C 59,45.1 63.3,41.7 65.3,36.8 68.5,29 64.7,20.1 56.9,17 54.1,15.8 51.1,15.6 48.3,16.1" style="fill:#ffffff"/><path d="m 122.3,106 c 0,-0.2 0.1,-0.3 0.1,-0.5 0,-0.1 0,-0.3 0.1,-0.4 0,-0.2 0,-0.4 0.1,-0.6 0,-0.2 0,-0.4 0,-0.6 0,-0.1 0,-0.2 0,-0.4 0,-0.1 0,-0.3 0,-0.4 l 0,-0.3 c 0,-0.1 0,-0.3 0,-0.4 0,-0.2 0,-0.3 0,-0.4 l 0,-0.2 c 0,-0.2 0,-0.4 -0.1,-0.5 l 0,-0.2 c 0,-0.2 -0.1,-0.4 -0.1,-0.6 l 0,-0.1 c 0,-0.2 -0.1,-0.3 -0.1,-0.5 l -0.1,-0.2 c 0,-0.1 -0.1,-0.3 -0.1,-0.4 L 122,99 c 0,-0.1 -0.1,-0.3 -0.1,-0.4 0,-0.1 -0.1,-0.2 -0.1,-0.3 0,-0.1 -0.1,-0.2 -0.1,-0.4 l -0.1,-0.2 c -0.1,-0.2 -0.1,-0.4 -0.2,-0.6 -0.1,-0.2 -0.2,-0.4 -0.3,-0.6 L 121,96.4 c -0.1,-0.2 -0.2,-0.3 -0.2,-0.5 l -0.1,-0.2 c -0.1,-0.2 -0.2,-0.3 -0.3,-0.5 l 0,-0.1 c -0.1,-0.2 -0.2,-0.4 -0.3,-0.5 -0.1,-0.2 -0.2,-0.4 -0.4,-0.6 l -0.1,-0.1 c -0.1,-0.2 -0.2,-0.3 -0.4,-0.5 -0.1,-0.2 -0.3,-0.4 -0.4,-0.5 l 0,0 c -0.1,-0.2 -0.3,-0.3 -0.4,-0.5 -0.2,-0.2 -0.3,-0.3 -0.5,-0.5 -0.2,-0.2 -0.3,-0.3 -0.5,-0.5 -0.2,-0.2 -0.4,-0.3 -0.5,-0.5 -0.2,-0.2 -0.5,-0.4 -0.8,-0.6 l -0.4,-0.2 c -0.2,-0.1 -0.4,-0.2 -0.5,-0.3 -0.2,-0.1 -0.4,-0.3 -0.7,-0.4 l -0.1,-0.1 c -0.2,-0.1 -0.4,-0.2 -0.6,-0.3 -0.2,-0.1 -0.4,-0.2 -0.7,-0.3 l -0.1,0 c -3.1,-1.3 -5.9,-3 -8.4,-5.1 -3.1,-2.7 -5.6,-5.9 -7.4,-9.5 l 0,0 c -1.4,-2.9 -2.4,-6.1 -2.9,-9.3 0,-0.1 0,-0.3 -0.1,-0.4 -0.8,-5.1 -4.2,-9.6 -9.3,-11.7 -5.1,-2.1 -10.7,-1.2 -14.8,1.9 -0.2,0.2 -0.4,0.3 -0.6,0.4 -1.9,1.6 -3.5,3.6 -4.4,6 -1,2.4 -1.3,4.9 -1,7.4 l 0,0 c 0,0.2 0.1,0.5 0.1,0.7 l 0,0 c 0.8,5.1 4.2,9.6 9.3,11.7 l 0,0 c 2.2,0.9 4.2,2 6.1,3.3 0.4,0.3 0.8,0.6 1.2,0.9 l 0,0 c 0.4,0.3 0.7,0.6 1.1,0.9 l 0,0 0,0 0,0 c 3.1,2.7 5.6,5.9 7.3,9.5 1.4,2.8 2.4,5.8 2.8,8.9 l 0,0.1 c 0,0.3 0.1,0.5 0.1,0.8 0,0.3 0.1,0.6 0.2,0.9 0.1,0.2 0.1,0.5 0.2,0.7 l 0.1,0.2 0,0 c 0.1,0.2 0.1,0.4 0.2,0.6 0.1,0.2 0.2,0.5 0.3,0.7 l 0.1,0.3 0,0 c 0.1,0.2 0.2,0.4 0.3,0.6 0.1,0.3 0.3,0.5 0.4,0.8 l 0,0 c 0.1,0.2 0.3,0.5 0.4,0.7 0.2,0.2 0.3,0.5 0.5,0.7 0.2,0.2 0.3,0.5 0.5,0.7 0.1,0.1 0.2,0.3 0.4,0.4 0.2,0.2 0.4,0.5 0.6,0.7 0.2,0.2 0.3,0.3 0.5,0.5 0.1,0.1 0.3,0.2 0.4,0.4 0.2,0.2 0.4,0.4 0.6,0.5 0.2,0.2 0.5,0.3 0.7,0.5 0.2,0.2 0.5,0.3 0.7,0.5 0.1,0.1 0.3,0.2 0.5,0.3 l 0.4,0.2 0.3,0.1 c 0.1,0.1 0.3,0.1 0.4,0.2 0.2,0.1 0.4,0.2 0.7,0.3 l 0.1,0 c 0.2,0.1 0.4,0.2 0.7,0.3 7.6,2.7 16,-1.1 19.1,-8.6 0.4,-0.5 0.7,-1.5 0.9,-2.4 z" style="fill:#ffffff"/><path d="m 24,84.9 c 0.1,0.1 0.3,0.2 0.4,0.3 0.1,0.1 0.2,0.2 0.3,0.3 0.2,0.1 0.3,0.2 0.5,0.3 0.2,0.1 0.3,0.2 0.5,0.4 l 0.3,0.2 0.3,0.2 0.2,0.1 c 0.1,0.1 0.2,0.1 0.4,0.2 0.1,0.1 0.3,0.1 0.4,0.2 l 0.2,0.1 c 0.2,0.1 0.3,0.1 0.5,0.2 l 0.1,0.1 c 0.2,0.1 0.4,0.1 0.6,0.2 l 0.1,0 c 0.2,0.1 0.3,0.1 0.5,0.2 l 0.2,0.1 c 0.1,0 0.3,0.1 0.4,0.1 l 0.2,0.1 c 0.1,0 0.3,0.1 0.4,0.1 0.1,0 0.2,0.1 0.3,0.1 0.1,0 0.2,0.1 0.4,0.1 l 0.2,0 c 0.2,0 0.4,0.1 0.6,0.1 0.2,0 0.4,0.1 0.6,0.1 l 0.1,0 c 0.2,0 0.4,0 0.5,0 l 0.2,0 c 0.2,0 0.4,0 0.6,0 l 0.1,0 c 0.2,0 0.4,0 0.6,0 0.2,0 0.4,0 0.7,0 l 0.1,0 c 0.2,0 0.4,0 0.6,-0.1 0.2,0 0.4,-0.1 0.7,-0.1 l 0.1,0 c 0.2,0 0.4,-0.1 0.6,-0.1 0.2,-0.1 0.5,-0.1 0.7,-0.2 0.2,-0.1 0.4,-0.1 0.7,-0.2 0.2,-0.1 0.4,-0.2 0.7,-0.2 0.3,-0.1 0.6,-0.2 0.9,-0.4 0.1,-0.1 0.3,-0.1 0.4,-0.2 0.2,-0.1 0.4,-0.2 0.6,-0.3 0.2,-0.1 0.4,-0.2 0.6,-0.4 l 0.1,-0.1 c 0.2,-0.1 0.4,-0.2 0.6,-0.4 0.2,-0.1 0.4,-0.3 0.6,-0.4 l 0.1,0 c 2.7,-2.1 5.6,-3.7 8.6,-4.7 C 56,79.5 60,79 64,79.2 l 0,0 c 3.3,0.2 6.5,0.9 9.5,2.1 0.1,0.1 0.3,0.1 0.4,0.2 4.8,1.8 10.4,1.2 14.8,-2.2 4.4,-3.4 6.4,-8.7 5.8,-13.8 0,-0.2 -0.1,-0.5 -0.1,-0.7 C 94,62.4 93,60 91.4,57.9 89.8,55.8 87.8,54.3 85.5,53.3 l 0,0 C 85.3,53.2 85,53.1 84.8,53 l 0,0 C 80,51.2 74.4,51.9 70.1,55.2 l 0,0 c -1.9,1.5 -3.8,2.7 -5.9,3.6 -0.5,0.2 -0.9,0.4 -1.4,0.6 l 0,0 c -0.4,0.2 -0.9,0.3 -1.3,0.5 l 0,0 0,0 0,0 c -3.9,1.3 -7.9,1.9 -11.9,1.6 -3.1,-0.2 -6.2,-0.9 -9.2,-2 l 0,0 C 40.1,59.4 39.9,59.3 39.6,59.2 39.3,59.1 39.1,59 38.8,58.9 38.6,58.8 38.3,58.8 38.1,58.7 l -0.2,-0.1 0,0 c -0.2,-0.1 -0.4,-0.1 -0.7,-0.1 -0.3,0 -0.5,-0.1 -0.8,-0.1 l -0.3,0 0,0 c -0.2,0 -0.5,0 -0.7,-0.1 -0.3,0 -0.6,0 -0.8,0 l 0,0 c -0.3,0 -0.6,0 -0.9,0 -0.3,0 -0.6,0 -0.9,0.1 -0.3,0 -0.6,0.1 -0.9,0.1 -0.2,0 -0.4,0.1 -0.5,0.1 -0.3,0.1 -0.6,0.1 -0.9,0.2 -0.2,0.1 -0.5,0.1 -0.7,0.2 -0.4,0 -0.6,0 -0.8,0.1 -0.3,0.1 -0.5,0.2 -0.8,0.3 -0.3,0.1 -0.5,0.2 -0.8,0.3 -0.3,0.1 -0.5,0.3 -0.8,0.4 -0.2,0.1 -0.3,0.2 -0.5,0.3 -0.1,0.1 -0.2,0.1 -0.4,0.2 l -0.2,0.2 c -0.1,0.1 -0.3,0.2 -0.4,0.3 -0.2,0.1 -0.4,0.3 -0.6,0.4 l -0.1,0 C 24.2,61.6 24,61.8 23.8,62 18,67.2 17,76.4 22,82.8 c 0.6,0.8 1.3,1.5 2,2.1 z" style="fill:#ffffff"/><path d="m 84.3,81.5 c 0.2,-0.1 0.3,-0.1 0.5,-0.2 0.1,-0.1 0.3,-0.1 0.4,-0.2 0.2,-0.1 0.4,-0.2 0.5,-0.2 0.2,-0.1 0.4,-0.2 0.6,-0.3 0.1,-0.1 0.2,-0.1 0.3,-0.2 0.1,-0.1 0.2,-0.1 0.3,-0.2 l 0.2,-0.1 c 0.1,-0.1 0.2,-0.1 0.4,-0.2 0.1,-0.1 0.2,-0.2 0.4,-0.2 l 0.2,-0.1 c 0.1,-0.1 0.3,-0.2 0.4,-0.3 l 0.1,-0.1 c 0.2,-0.1 0.3,-0.3 0.5,-0.4 l 0,0 c 0.1,-0.1 0.3,-0.2 0.4,-0.3 l 0.2,-0.2 C 89.8,78.2 89.9,78.1 90,78 l 0.2,-0.2 0.3,-0.3 0.2,-0.3 0.2,-0.3 0.1,-0.2 c 0.1,-0.1 0.3,-0.3 0.4,-0.5 0.1,-0.2 0.2,-0.3 0.4,-0.5 l 0.1,-0.1 c 0.1,-0.1 0.2,-0.3 0.3,-0.4 l 0.1,-0.1 c 0.1,-0.2 0.2,-0.3 0.3,-0.5 l 0,-0.1 c 0.1,-0.2 0.2,-0.4 0.3,-0.6 0.1,-0.2 0.2,-0.4 0.3,-0.6 l 0,-0.1 c 0.1,-0.2 0.2,-0.4 0.2,-0.6 0.1,-0.2 0.2,-0.4 0.2,-0.6 l 0,-0.1 c 0.1,-0.2 0.1,-0.4 0.2,-0.6 0.1,-0.2 0.1,-0.4 0.2,-0.7 0.1,-0.2 0.1,-0.5 0.1,-0.7 0,-0.2 0.1,-0.5 0.1,-0.7 0,-0.3 0.1,-0.6 0.1,-1 0,-0.1 0,-0.3 0,-0.4 0,-0.2 0,-0.4 0,-0.6 0,-0.3 0,-0.5 0,-0.8 l 0,-0.2 c 0,-0.2 0,-0.4 0,-0.7 0,-0.2 0,-0.5 -0.1,-0.7 l 0,-0.1 c -0.5,-3.4 -0.4,-6.7 0.2,-9.8 0.7,-4 2.3,-7.8 4.5,-11.2 l 0,0 c 1.8,-2.7 4,-5.2 6.6,-7.2 0.1,-0.1 0.2,-0.2 0.3,-0.3 4,-3.3 6.2,-8.5 5.4,-13.9 -0.8,-5.5 -4.4,-9.8 -9.1,-11.9 -0.2,-0.1 -0.5,-0.2 -0.7,-0.3 C 99.1,9.2 96.6,8.9 94,9.3 c -2.6,0.4 -4.9,1.4 -6.9,2.8 l 0,0 c -0.2,0.2 -0.4,0.3 -0.6,0.5 l 0,0 c -3.9,3.3 -6.2,8.4 -5.4,13.9 l 0,0 c 0.3,2.3 0.4,4.7 0.2,6.9 0,0.5 -0.1,1 -0.2,1.5 l 0,0 C 81,35.4 81,35.8 80.9,36.3 l 0,0 0,0 0,0 c -0.7,4 -2.3,7.8 -4.5,11.1 -1.7,2.6 -3.8,5 -6.3,7 l 0,0 c -0.2,0.2 -0.4,0.3 -0.6,0.5 -0.2,0.2 -0.4,0.4 -0.7,0.6 -0.2,0.2 -0.4,0.3 -0.5,0.5 l -0.2,0.2 0,0 c -0.2,0.2 -0.3,0.3 -0.4,0.5 -0.2,0.2 -0.3,0.4 -0.5,0.6 l -0.2,0.3 0,0 c -0.1,0.2 -0.3,0.4 -0.4,0.6 -0.2,0.2 -0.3,0.5 -0.5,0.7 l 0,0 c -0.1,0.2 -0.3,0.5 -0.4,0.7 -0.1,0.3 -0.3,0.5 -0.4,0.8 -0.1,0.3 -0.2,0.5 -0.3,0.8 -0.1,0.2 -0.1,0.3 -0.2,0.5 -0.1,0.3 -0.2,0.6 -0.3,0.9 -0.1,0.2 -0.1,0.5 -0.2,0.7 0,0.2 -0.1,0.3 -0.1,0.5 0,0.3 -0.1,0.6 -0.1,0.8 0,0.3 -0.1,0.6 -0.1,0.8 0,0.3 0,0.6 0,0.9 0,0.2 0,0.4 0,0.5 0,0.1 0,0.3 0,0.4 l 0,0.3 c 0,0.2 0,0.3 0,0.5 0,0.2 0,0.5 0.1,0.7 l 0,0.1 c 0,0.2 0.1,0.5 0.1,0.7 1.5,7.9 9,13.3 17.1,12.2 1.1,0.4 2.1,0.2 3,-0.2 z" style="fill:#ffffff"/></g></switch></svg>